<?xml version="1.0" standalone="no"?>
<!DOCTYPE svg PUBLIC "-//W3C//DTD SVG 20010904//EN"
 "http://www.w3.org/TR/2001/REC-SVG-20010904/DTD/svg10.dtd">
<svg version="1.0" xmlns="http://www.w3.org/2000/svg"
 width="512.000000pt" height="512.000000pt" viewBox="0 0 512.000000 512.000000"
 preserveAspectRatio="xMidYMid meet">

<g transform="translate(0.000000,512.000000) scale(0.100000,-0.100000)"
fill="#000000" stroke="none">
<path d="M2852 4318 c-16 -16 -17 -1835 -1 -1941 40 -258 212 -484 474 -623
185 -99 362 -139 575 -131 140 5 203 18 319 64 275 109 506 365 581 648 125
468 -168 969 -659 1129 -125 41 -188 49 -348 44 -171 -6 -268 -30 -410 -101
-101 -50 -151 -89 -169 -133 -14 -34 -20 -188 -8 -218 12 -30 55 -17 128 39
79 60 187 114 286 141 91 26 328 26 420 1 166 -46 338 -159 424 -280 97 -135
131 -254 123 -427 -6 -131 -28 -214 -85 -325 -44 -83 -150 -194 -234 -243
-224 -131 -536 -134 -792 -6 -185 93 -310 238 -377 439 l-24 70 -3 919 c-2
644 -6 924 -14 933 -14 17 -189 18 -206 1z"/>
<path d="M1125 3493 c-229 -32 -473 -172 -620 -356 -313 -391 -277 -906 86
-1253 307 -292 758 -363 1136 -179 104 51 160 95 179 142 8 19 14 69 14 121 0
133 -21 142 -131 57 -326 -252 -816 -215 -1089 82 -122 133 -177 293 -167 487
15 320 202 556 504 638 112 30 295 30 418 0 246 -61 449 -224 536 -430 59
-143 59 -139 59 -1106 0 -673 3 -885 12 -894 18 -18 192 -16 207 2 9 10 11
261 9 982 -3 890 -5 974 -21 1029 -22 76 -76 191 -119 252 -143 211 -414 371
-703 418 -83 14 -239 18 -310 8z"/>
<path d="M2535 2671 c-145 -145 -143 -140 -144 -292 -1 -78 8 -100 43 -113 15
-5 48 22 155 128 l136 135 3 111 c4 118 -8 160 -46 160 -9 0 -75 -58 -147
-129z"/>
</g>
</svg>
